<svg width="512" height="512" viewBox="0 0 512 512" fill="none" xmlns="http://www.w3.org/2000/svg">
  <rect width="512" height="512" rx="96" fill="#07111F"/>
  <path d="M140 144C140 128.536 152.536 116 168 116H344C359.464 116 372 128.536 372 144V176C372 191.464 359.464 204 344 204H168C152.536 204 140 191.464 140 176V144Z" fill="#F59E0B"/>
  <path d="M140 248C140 232.536 152.536 220 168 220H344C359.464 220 372 232.536 372 248V280C372 295.464 359.464 308 344 308H168C152.536 308 140 295.464 140 280V248Z" fill="#F8FAFC"/>
  <path d="M140 352C140 336.536 152.536 324 168 324H344C359.464 324 372 336.536 372 352V384C372 399.464 359.464 412 344 412H168C152.536 412 140 399.464 140 384V352Z" fill="#F59E0B"/>
  <path d="M188 150H324V190H188V150Z" fill="#07111F"/>
  <path d="M188 254H324V294H188V254Z" fill="#07111F"/>
  <path d="M188 358H324V398H188V358Z" fill="#07111F"/>
</svg>